<!--?xml version="1.0" encoding="utf-8"?-->
<!-- Generator: Adobe Illustrator 18.1.1, SVG Export Plug-In . SVG Version: 6.00 Build 0)  -->

<svg version="1.1" id="_x32_" xmlns="http://www.w3.org/2000/svg" xmlns:xlink="http://www.w3.org/1999/xlink" x="0px" y="0px" viewBox="0 0 512 512" style="width: 256px; height: 256px; opacity: 1;" xml:space="preserve">
<style type="text/css">
	.st0{fill:#4B4B4B;}
</style>
<g>
	<path class="st0" d="M36.065,0.017V0C17.55,31.984,6.87,69.071,6.87,108.6c0,39.512,10.68,76.64,29.194,108.599l16.805-9.714
		c-16.863-29.148-26.577-62.883-26.577-98.886c0-36.019,9.714-69.712,26.577-98.862L36.065,0.017z" style="fill: rgb(75, 75, 75);"></path>
	<path class="st0" d="M118.379,178.846c-11.99-20.7-18.906-44.656-18.906-70.246c0-25.566,6.903-49.53,18.906-70.255l-16.81-9.721
		C87.94,52.167,80.051,79.5,80.051,108.6c0,29.124,7.881,56.449,21.518,79.993L118.379,178.846z" style="fill: rgb(75, 75, 75);"></path>
	<path class="st0" d="M475.936,0L459.13,9.746c16.863,29.141,26.572,62.834,26.572,98.853c0,36.003-9.709,69.737-26.572,98.886
		l16.806,9.714c18.511-31.959,29.194-69.088,29.194-108.599C505.13,69.071,494.447,31.984,475.936,0z" style="fill: rgb(75, 75, 75);"></path>
	<path class="st0" d="M393.642,38.361c11.977,20.734,18.884,44.672,18.884,70.238c0,25.59-6.907,49.546-18.897,70.246l16.809,9.746
		c13.638-23.544,21.511-50.869,21.511-79.993c0-29.099-7.872-56.432-21.511-79.993L393.642,38.361z" style="fill: rgb(75, 75, 75);"></path>
	<polygon class="st0" points="377.703,38.344 377.703,38.361 377.711,38.361 	" style="fill: rgb(75, 75, 75);"></polygon>
	<path class="st0" d="M183.921,150.231c-7.134-12.326-11.246-26.478-11.246-41.632c0-15.138,4.112-29.289,11.246-41.615
		l-16.826-9.714c-8.727,15.104-13.847,32.625-13.847,51.329c0,18.729,5.12,36.249,13.847,51.354L183.921,150.231z" style="fill: rgb(75, 75, 75);"></path>
	<path class="st0" d="M344.893,159.953c8.743-15.104,13.867-32.625,13.867-51.354c0-18.704-5.124-36.249-13.867-51.346L328.087,67
		c7.134,12.327,11.25,26.461,11.25,41.599c0,15.154-4.116,29.288-11.25,41.632L344.893,159.953z" style="fill: rgb(75, 75, 75);"></path>
	<path class="st0" d="M93.134,512L256,355.202L418.867,512L256,92.484L93.134,512z M144.377,435.023l52.927-136.327l44.34,42.684
		L144.377,435.023z M367.624,435.023l-97.271-93.643l44.343-42.684L367.624,435.023z M256,327.566l-50.886-48.987L256,147.503
		l50.885,131.068L256,327.566z" style="fill: rgb(75, 75, 75);"></path>
</g>
</svg>
